# xmcd CD database file
#
# Track frame offsets:
#	150
#	13593
#	31792
#	49229
#	67679
#	86108
#	99105
#	114630
#	133595
#	151661
#
# Disc length: 2420 seconds
#
# Revision: 0
# Processed by: cddbd v1.5.2PL0 Copyright (c) Steve Scherf et al.
# Submitted via: CDex 1.70beta2
#
DISCID=6d09720a
DTITLE=SORRY FOR NOTHING  - PYSCHO MONSTER RESURRECTION
DYEAR=2011
DGENRE=Sludge Metal
TTITLE0=WOLFMAN
TTITLE1=SHED MY SKIN
TTITLE2=ELECTRIC BLOOD
TTITLE3=DIG ME UP
TTITLE4=16OZ
TTITLE5=MESSIAH TEST
TTITLE6=PICK THE BONES 
TTITLE7=DEVIL MIND
TTITLE8=HAMMERBLOW
TTITLE9=BLIND
EXTD=YEAR: 2011
EXTT0=
EXTT1=
EXTT2=
EXTT3=
EXTT4=
EXTT5=
EXTT6=
EXTT7=
EXTT8=
EXTT9=
PLAYORDER=
